<?xml version="1.0" encoding="UTF-8" standalone="no"?>
<!DOCTYPE svg PUBLIC "-//W3C//DTD SVG 1.1//EN" "http://www.w3.org/Graphics/SVG/1.1/DTD/svg11.dtd">
<svg xmlns="http://www.w3.org/2000/svg" version="1.1" viewBox="0.00 0.00 256.00 256.00">
<path fill="#d6d6d6" d="
  M 113.79 113.21
  Q 113.95 68.39 113.81 23.23
  Q 113.78 13.04 114.17 11.31
  C 116.33 1.79 127.71 -2.56 136.03 3.01
  Q 142.38 7.26 142.36 15.75
  Q 142.21 64.49 142.16 113.06
  A 0.91 0.90 -0.0 0 0 143.07 113.96
  Q 190.65 113.94 238.45 113.96
  Q 244.19 113.96 246.88 115.05
  C 258.12 119.60 258.59 135.58 247.74 140.77
  Q 245.10 142.04 240.53 142.04
  Q 191.64 142.05 142.83 142.04
  A 0.66 0.66 0.0 0 0 142.17 142.70
  Q 142.21 191.38 142.25 240.25
  Q 142.25 248.64 136.32 252.93
  C 128.48 258.60 117.46 255.10 114.55 245.86
  Q 113.83 243.60 113.83 237.58
  Q 113.82 190.24 113.84 142.96
  A 0.93 0.92 0.0 0 0 112.91 142.04
  Q 64.40 142.05 15.47 142.03
  Q 10.89 142.03 8.26 140.76
  C -2.57 135.48 -2.24 119.81 8.95 115.11
  Q 11.67 113.97 17.23 113.97
  Q 64.91 113.92 113.02 113.98
  A 0.77 0.77 0.0 0 0 113.79 113.21
  Z"
/>
</svg>
