<?xml version="1.0" encoding="UTF-8" standalone="no"?>
<!DOCTYPE svg PUBLIC "-//W3C//DTD SVG 1.1//EN" "http://www.w3.org/Graphics/SVG/1.1/DTD/svg11.dtd">
<svg xmlns="http://www.w3.org/2000/svg" version="1.1" viewBox="0.00 0.00 512.00 512.00">
<path fill="#AE8948" d="
  M 512.00 111.14
  L 512.00 113.79
  Q 510.90 130.29 499.47 141.72
  Q 359.47 281.78 219.43 421.80
  Q 209.35 431.88 204.31 434.77
  C 189.10 443.46 168.53 441.32 155.96 428.76
  Q 83.87 356.74 11.85 284.65
  Q 1.02 273.81 0.00 257.22
  L 0.00 254.66
  Q 0.67 246.20 3.10 240.56
  C 14.92 213.07 49.22 207.23 70.26 228.24
  Q 127.17 285.07 183.96 341.88
  A 0.37 0.37 0.0 0 0 184.49 341.88
  Q 313.37 212.99 442.32 84.07
  C 467.92 58.47 509.84 75.57 512.00 111.14
  Z"
/>
</svg>
