<?xml version="1.0" encoding="UTF-8" standalone="no"?>
<!DOCTYPE svg PUBLIC "-//W3C//DTD SVG 1.1//EN" "http://www.w3.org/Graphics/SVG/1.1/DTD/svg11.dtd">
<svg xmlns="http://www.w3.org/2000/svg" version="1.1" viewBox="0.00 0.00 128.00 128.00">
<path fill="#AE8948" d="
  M 60.24 0.00
  L 68.01 0.00
  C 100.77 3.05 125.61 27.43 128.00 60.34
  L 128.00 67.78
  C 125.27 100.55 100.57 125.55 67.68 128.00
  L 60.16 128.00
  C 27.41 125.05 2.38 100.65 0.00 67.71
  L 0.00 60.02
  C 2.54 27.17 27.53 2.90 60.24 0.00
  Z
  M 121.95 63.99
  A 57.95 57.95 0.0 0 0 64.00 6.04
  A 57.95 57.95 0.0 0 0 6.05 63.99
  A 57.95 57.95 0.0 0 0 64.00 121.94
  A 57.95 57.95 0.0 0 0 121.95 63.99
  Z"
/>
<path fill="#AE8948" d="
  M 101.37 82.97
  A 7.44 7.44 0.0 0 1 93.93 90.41
  L 34.07 90.41
  A 7.44 7.44 0.0 0 1 26.63 82.97
  L 26.63 45.03
  A 7.44 7.44 0.0 0 1 34.07 37.59
  L 93.93 37.59
  A 7.44 7.44 0.0 0 1 101.37 45.03
  L 101.37 82.97
  Z
  M 88.88 44.17
  A 0.33 0.33 0.0 0 0 88.67 43.58
  L 39.37 43.58
  A 0.33 0.33 0.0 0 0 39.16 44.17
  L 63.81 63.76
  A 0.33 0.33 0.0 0 0 64.23 63.76
  L 88.88 44.17
  Z
  M 64.47 70.70
  Q 63.39 70.91 62.36 70.10
  Q 47.60 58.55 33.06 47.02
  Q 32.62 46.68 32.62 47.24
  L 32.62 82.78
  Q 32.62 84.42 34.26 84.42
  L 93.72 84.42
  Q 95.38 84.42 95.38 82.76
  L 95.39 47.22
  A 0.27 0.27 0.0 0 0 94.96 47.01
  L 66.14 69.89
  A 4.19 2.93 -60.9 0 1 64.47 70.70
  Z"
/>
</svg>
