<?xml version="1.0" encoding="UTF-8" standalone="no"?>
<!DOCTYPE svg PUBLIC "-//W3C//DTD SVG 1.1//EN" "http://www.w3.org/Graphics/SVG/1.1/DTD/svg11.dtd">
<svg xmlns="http://www.w3.org/2000/svg" version="1.1" viewBox="0.00 0.00 128.00 128.00">
<path fill="#AE8948" d="
  M 69.30 38.27
  C 62.69 41.47 56.48 33.98 61.32 28.31
  Q 64.29 24.84 69.39 26.91
  Q 70.01 27.17 70.01 26.50
  L 70.02 18.29
  A 1.88 1.88 0.0 0 1 71.91 16.41
  Q 76.35 16.42 80.66 17.65
  Q 81.98 18.03 82.22 16.67
  C 83.28 10.53 85.91 10.15 91.84 9.65
  Q 98.10 9.13 103.84 6.47
  Q 104.31 6.26 104.47 5.77
  C 105.55 2.51 111.12 -1.49 113.65 2.82
  Q 119.06 12.05 124.44 21.30
  C 126.86 25.47 121.42 28.17 118.16 28.32
  Q 117.66 28.34 117.37 28.75
  C 114.30 33.09 109.32 35.16 103.30 38.54
  Q 102.89 38.77 102.96 39.23
  L 103.96 46.54
  A 2.04 2.03 -4.0 0 1 101.94 48.86
  L 93.03 48.85
  Q 92.58 48.85 92.72 49.28
  C 97.20 63.19 76.05 61.55 81.32 49.37
  Q 81.55 48.85 80.98 48.86
  L 72.56 48.86
  Q 70.01 48.86 70.01 46.31
  L 70.01 38.71
  Q 70.01 37.92 69.30 38.27
  Z
  M 110.7709 5.2175
  A 0.59 0.59 0.0 0 0 109.9650 5.0016
  L 108.9950 5.5616
  A 0.59 0.59 0.0 0 0 108.7791 6.3675
  L 118.9491 23.9825
  A 0.59 0.59 0.0 0 0 119.7550 24.1984
  L 120.7250 23.6384
  A 0.59 0.59 0.0 0 0 120.9409 22.8325
  L 110.7709 5.2175
  Z
  M 105.50 20.58
  A 1.51 1.50 32.1 0 1 105.97 22.58
  L 100.41 32.23
  Q 100.14 32.69 100.38 33.18
  L 101.16 34.76
  Q 101.43 35.31 101.96 35.01
  C 106.08 32.70 112.65 29.84 114.98 25.59
  Q 115.26 25.07 114.96 24.56
  L 106.45 9.81
  A 0.36 0.35 -27.3 0 0 105.99 9.67
  Q 97.70 13.51 88.53 13.56
  A 2.02 2.02 0.0 0 0 86.62 14.96
  L 85.43 18.68
  A 0.66 0.65 -66.6 0 0 85.73 19.45
  L 90.46 22.12
  A 0.58 0.58 0.0 0 0 91.24 21.91
  L 92.31 20.13
  A 1.66 1.65 34.4 0 1 94.75 19.68
  L 95.19 20.02
  A 1.48 1.48 0.0 0 1 95.57 21.93
  L 90.50 30.74
  A 2.58 2.57 27.3 0 0 91.66 34.36
  L 92.23 34.62
  A 2.35 2.34 27.4 0 0 95.24 33.67
  L 102.62 20.91
  A 1.76 1.76 0.0 0 1 105.13 20.33
  L 105.50 20.58
  Z
  M 79.74 44.97
  C 83.33 44.81 86.50 47.13 84.84 50.89
  C 82.06 57.20 91.51 56.45 89.45 51.47
  C 86.17 43.54 95.60 45.12 99.65 45.00
  Q 100.33 44.98 100.16 44.32
  L 98.26 37.03
  Q 98.04 36.15 97.35 36.74
  C 92.48 40.90 85.49 36.87 86.62 30.69
  C 86.91 29.13 87.97 27.71 88.75 26.22
  A 0.60 0.60 0.0 0 0 88.55 25.45
  Q 82.08 21.04 74.26 20.30
  Q 73.76 20.25 73.76 20.75
  C 73.76 24.98 75.11 33.03 67.38 30.21
  C 62.00 28.25 62.43 36.91 67.13 35.11
  C 75.12 32.06 73.73 40.00 73.77 44.51
  Q 73.77 45.04 74.30 45.04
  Q 77.06 45.09 79.74 44.97
  Z"
/>
<rect fill="#AE8948" x="-1.87" y="-6.34" transform="translate(56.56,17.70) rotate(-0.2)" width="3.74" height="12.68" rx="1.79"/>
<rect fill="#AE8948" x="-1.87" y="-6.34" transform="translate(32.94,24.03) rotate(-30.1)" width="3.74" height="12.68" rx="1.81"/>
<path fill="#AE8948" d="
  M 70.68 116.30
  C 66.55 130.66 46.14 130.65 42.17 116.23
  Q 42.03 115.71 41.49 115.64
  L 40.18 115.46
  Q 39.61 115.38 39.12 115.09
  Q 33.25 111.64 36.84 105.25
  Q 37.06 104.86 36.82 104.48
  Q 33.48 99.17 38.30 95.29
  A 0.65 0.64 -37.5 0 0 38.42 94.40
  C 34.32 88.71 29.05 82.19 26.79 76.25
  C 18.40 54.20 33.48 33.86 56.32 32.91
  A 1.88 1.88 0.0 0 1 58.28 34.75
  C 58.36 38.43 60.18 50.41 52.00 46.76
  C 47.85 44.91 46.04 51.49 50.77 51.94
  A 1.60 1.56 32.7 0 0 51.65 51.76
  Q 55.02 49.90 57.05 52.00
  C 59.01 54.03 58.28 58.24 58.31 61.04
  Q 58.32 61.58 58.85 61.61
  C 62.40 61.80 70.15 60.22 69.82 66.00
  C 69.75 67.16 68.64 68.30 68.78 69.73
  C 69.14 73.34 75.65 72.46 73.93 68.08
  C 72.34 64.03 73.86 61.72 78.19 61.69
  Q 82.55 61.66 86.69 61.70
  A 1.73 1.73 0.0 0 1 88.40 63.41
  C 88.50 76.88 81.86 83.49 74.53 94.44
  Q 74.22 94.90 74.65 95.27
  Q 79.44 99.30 75.98 104.62
  Q 75.69 105.07 76.02 105.49
  C 79.49 109.96 76.35 114.97 71.33 115.72
  Q 70.82 115.80 70.68 116.30
  Z
  M 56.28 65.41
  A 1.72 1.71 89.7 0 1 54.56 63.70
  L 54.55 55.24
  Q 54.55 54.61 53.96 54.85
  Q 49.44 56.72 46.51 54.12
  C 40.66 48.91 46.68 39.87 53.99 43.60
  A 0.39 0.39 0.0 0 0 54.56 43.25
  L 54.56 37.27
  A 0.47 0.46 87.2 0 0 54.05 36.80
  C 40.69 38.21 28.91 48.32 28.25 62.25
  C 27.60 75.94 35.70 83.28 42.37 93.85
  Q 42.60 94.22 43.04 94.22
  L 69.75 94.22
  Q 70.32 94.22 70.62 93.73
  C 76.41 84.31 83.70 77.75 84.62 65.95
  A 0.49 0.48 -87.8 0 0 84.14 65.42
  L 77.46 65.39
  A 0.38 0.38 0.0 0 0 77.11 65.93
  Q 79.10 70.04 76.72 73.14
  C 71.70 79.67 61.90 73.06 65.91 66.04
  A 0.43 0.43 0.0 0 0 65.54 65.39
  L 56.28 65.41
  Z
  M 73.66 100.47
  A 2.47 2.47 0.0 0 0 71.19 98.00
  L 41.73 98.00
  A 2.47 2.47 0.0 0 0 39.26 100.47
  L 39.26 100.57
  A 2.47 2.47 0.0 0 0 41.73 103.04
  L 71.19 103.04
  A 2.47 2.47 0.0 0 0 73.66 100.57
  L 73.66 100.47
  Z
  M 73.6401 109.3500
  A 2.53 2.53 0.0 0 0 71.1145 106.8156
  L 41.8145 106.7644
  A 2.53 2.53 0.0 0 0 39.2801 109.2900
  L 39.2799 109.3900
  A 2.53 2.53 0.0 0 0 41.8055 111.9244
  L 71.1055 111.9756
  A 2.53 2.53 0.0 0 0 73.6399 109.4500
  L 73.6401 109.3500
  Z
  M 46.16 116.19
  C 49.66 126.08 62.69 125.40 66.84 116.19
  Q 67.07 115.68 66.51 115.68
  L 46.50 115.69
  Q 45.98 115.69 46.16 116.19
  Z"
/>
<rect fill="#AE8948" x="-6.35" y="-1.87" transform="translate(15.65,41.31) rotate(30.0)" width="12.70" height="3.74" rx="1.82"/>
<rect fill="#AE8948" x="2.99" y="63.05" width="12.70" height="3.72" rx="1.79"/>
<rect fill="#AE8948" x="-6.34" y="-1.86" transform="translate(103.76,64.92) rotate(-0.2)" width="12.68" height="3.72" rx="1.79"/>
<rect fill="#AE8948" x="-6.34" y="-1.87" transform="translate(15.66,88.53) rotate(-30.0)" width="12.68" height="3.74" rx="1.82"/>
<rect fill="#AE8948" x="-6.34" y="-1.87" transform="translate(97.43,88.53) rotate(29.9)" width="12.68" height="3.74" rx="1.81"/>
</svg>
