<?xml version="1.0" encoding="UTF-8" standalone="no"?>
<!DOCTYPE svg PUBLIC "-//W3C//DTD SVG 1.1//EN" "http://www.w3.org/Graphics/SVG/1.1/DTD/svg11.dtd">
<svg xmlns="http://www.w3.org/2000/svg" version="1.1" viewBox="0.00 0.00 512.00 512.00">
<path fill="#fafafa" d="
  M 253.54 0.00
  L 258.55 0.00
  Q 321.04 2.42 363.42 45.72
  C 390.89 73.79 405.70 111.56 405.72 150.75
  Q 405.74 193.12 405.73 234.69
  A 3.85 3.84 9.6 0 0 408.31 238.32
  Q 415.44 240.83 422.51 243.38
  Q 430.96 246.42 434.11 249.20
  C 440.36 254.70 441.17 260.97 441.17 269.79
  Q 441.19 362.21 441.17 454.64
  C 441.17 463.17 440.54 469.24 434.77 474.77
  Q 431.37 478.03 421.39 481.78
  Q 344.13 510.83 261.20 512.00
  L 250.67 512.00
  Q 167.31 510.80 89.69 481.43
  Q 80.63 478.00 77.33 474.86
  C 71.56 469.37 70.83 463.40 70.83 454.92
  Q 70.81 362.26 70.83 269.60
  C 70.84 260.89 71.71 254.65 77.88 249.21
  Q 81.02 246.43 89.50 243.38
  Q 96.63 240.81 103.78 238.29
  A 3.73 3.72 -9.8 0 0 106.27 234.78
  Q 106.26 192.95 106.29 150.25
  C 106.31 112.59 120.39 75.80 146.27 48.18
  Q 189.01 2.54 253.54 0.00
  Z
  M 300.31 62.17
  C 234.50 29.44 158.09 76.51 157.79 150.02
  Q 157.64 186.36 157.80 222.96
  Q 157.80 223.58 158.40 223.45
  Q 255.99 202.88 353.58 223.46
  A 0.49 0.48 5.9 0 0 354.17 222.99
  Q 354.44 166.61 354.24 149.50
  C 353.81 112.96 333.56 78.70 300.31 62.17
  Z
  M 235.52 358.84
  Q 235.71 387.92 235.56 417.01
  Q 235.50 428.48 237.00 432.83
  C 243.11 450.47 268.77 450.57 274.96 432.82
  Q 276.44 428.58 276.41 418.50
  Q 276.32 388.73 276.37 358.85
  Q 276.37 358.35 276.80 358.08
  C 308.95 338.18 300.10 291.47 263.59 283.91
  Q 252.15 281.54 241.35 285.87
  C 209.92 298.46 206.07 340.02 235.06 358.02
  A 0.99 0.96 16.6 0 1 235.52 358.84
  Z"
/>
</svg>
