<?xml version="1.0" encoding="UTF-8" standalone="no"?>
<!DOCTYPE svg PUBLIC "-//W3C//DTD SVG 1.1//EN" "http://www.w3.org/Graphics/SVG/1.1/DTD/svg11.dtd">
<svg xmlns="http://www.w3.org/2000/svg" version="1.1" viewBox="0.00 0.00 400.00 400.00">
<path fill="#fafafa" d="
  M 207.73 82.17
  C 169.56 78.25 152.77 109.43 153.08 142.70
  A 0.83 0.82 -0.3 0 1 152.25 143.53
  L 83.53 143.54
  Q 83.04 143.54 83.04 143.06
  Q 83.21 110.85 96.83 84.59
  C 115.08 49.41 149.02 28.66 188.24 26.23
  Q 216.22 24.50 242.25 31.04
  C 284.40 41.62 318.52 76.17 316.63 121.84
  C 315.43 151.03 307.25 172.37 284.92 191.45
  C 264.90 208.56 237.47 220.48 231.13 249.11
  C 229.71 255.57 230.38 263.70 230.29 270.86
  A 0.56 0.55 -0.0 0 1 229.73 271.41
  L 166.76 271.39
  A 0.82 0.81 90.0 0 1 165.95 270.57
  Q 165.92 260.51 166.26 250.02
  Q 167.42 214.38 190.79 189.58
  C 213.26 165.73 246.30 156.62 241.28 116.02
  C 238.89 96.71 228.26 84.27 207.73 82.17
  Z"
/>
<circle fill="#fafafa" cx="196.64" cy="336.30" r="37.30"/>
</svg>
