<?xml version="1.0" encoding="UTF-8" standalone="no"?>
<!DOCTYPE svg PUBLIC "-//W3C//DTD SVG 1.1//EN" "http://www.w3.org/Graphics/SVG/1.1/DTD/svg11.dtd">
<svg xmlns="http://www.w3.org/2000/svg" version="1.1" viewBox="0.00 0.00 512.00 512.00">
<path fill="#ffffff" d="
  M 0.00 279.89
  L 0.00 276.52
  Q 2.68 265.56 13.76 265.62
  Q 31.27 265.72 39.29 265.69
  A 0.58 0.57 -1.5 0 0 39.86 265.10
  Q 37.69 205.81 64.97 154.32
  C 98.27 91.45 163.63 46.77 234.82 40.73
  Q 329.90 32.66 401.51 95.75
  A 0.59 0.58 -48.9 0 1 401.56 96.57
  L 356.60 149.16
  Q 356.19 149.64 355.73 149.21
  Q 322.39 118.38 278.76 111.51
  C 186.32 96.94 104.62 171.91 110.11 265.15
  Q 110.14 265.66 110.65 265.66
  Q 125.30 265.73 139.73 265.71
  Q 145.40 265.70 148.03 266.94
  C 155.63 270.51 157.19 280.41 151.72 286.70
  Q 114.81 329.17 77.84 371.59
  A 0.38 0.38 0.0 0 1 77.27 371.59
  Q 40.20 329.06 3.05 286.46
  Q 0.76 283.83 0.00 279.89
  Z"
/>
<path fill="#ffffff" d="
  M 512.00 252.12
  L 512.00 255.24
  Q 510.34 262.65 504.55 265.13
  Q 501.73 266.34 493.33 266.25
  Q 482.96 266.15 472.70 266.31
  Q 472.15 266.32 472.12 266.87
  Q 466.43 355.32 402.99 414.74
  C 325.14 487.67 204.35 491.35 121.19 425.18
  A 0.38 0.38 0.0 0 1 121.14 424.63
  L 166.17 371.95
  Q 166.43 371.64 166.76 371.88
  Q 218.10 409.97 280.43 400.11
  C 311.38 395.22 340.59 379.21 361.94 356.70
  Q 397.36 319.35 401.80 266.82
  Q 401.85 266.24 401.27 266.24
  Q 392.70 266.26 369.76 266.32
  C 364.44 266.33 359.82 263.27 357.93 258.19
  C 354.97 250.18 359.12 246.61 363.97 241.01
  Q 398.91 200.66 434.13 160.52
  Q 434.48 160.11 434.84 160.52
  Q 471.85 202.81 508.63 245.09
  Q 511.25 248.10 512.00 252.12
  Z"
/>
</svg>
