<?xml version="1.0" encoding="UTF-8" standalone="no"?>
<!DOCTYPE svg PUBLIC "-//W3C//DTD SVG 1.1//EN" "http://www.w3.org/Graphics/SVG/1.1/DTD/svg11.dtd">
<svg xmlns="http://www.w3.org/2000/svg" version="1.1" viewBox="0.00 0.00 512.00 512.00">
<path fill="#ffffff" d="
  M 512.00 303.63
  L 512.00 308.60
  C 509.91 380.65 451.96 438.55 379.25 438.57
  Q 289.49 438.58 199.71 438.58
  Q 191.98 438.58 187.94 437.22
  C 168.08 430.54 167.65 401.98 187.68 395.34
  Q 192.20 393.84 203.47 393.85
  Q 291.43 393.91 379.39 393.87
  C 406.37 393.86 431.50 381.49 448.31 360.45
  C 473.58 328.83 473.44 283.00 448.12 251.50
  C 431.10 230.34 406.03 218.30 378.75 218.29
  Q 227.79 218.28 76.97 218.29
  A 0.25 0.25 0.0 0 0 76.79 218.72
  Q 104.77 246.79 132.74 274.69
  Q 140.50 282.45 142.62 286.71
  C 151.80 305.22 131.67 325.41 113.16 316.23
  Q 108.84 314.10 100.81 306.05
  Q 30.94 236.06 7.27 212.48
  Q 0.82 206.06 0.00 197.22
  L 0.00 194.49
  Q 0.93 185.76 7.47 179.22
  Q 53.82 132.92 100.11 86.56
  Q 108.91 77.75 113.29 75.61
  C 131.90 66.51 151.78 86.92 142.55 105.33
  Q 140.43 109.56 133.03 116.94
  Q 104.77 145.10 76.68 173.26
  A 0.19 0.19 0.0 0 0 76.81 173.58
  Q 228.25 173.49 379.50 173.58
  C 452.09 173.62 509.92 231.81 512.00 303.63
  Z"
/>
</svg>
